<?xml version="1.0" encoding="UTF-8"?>
<svg width="442px" height="23px" viewBox="0 0 442 23" version="1.1" xmlns="http://www.w3.org/2000/svg" xmlns:xlink="http://www.w3.org/1999/xlink">
    <!-- Generator: Sketch 57.1 (83088) - https://sketch.com -->
    <title>Group 2</title>
    <desc>Created with Sketch.</desc>
    <g id="Page-1" stroke="none" stroke-width="1" fill="none" fill-rule="evenodd">
        <g id="Artboard" transform="translate(-160.000000, -471.000000)" fill="#FFFFFF" fill-rule="nonzero">
            <g id="Group-2" transform="translate(160.000000, 471.000000)">
                <path d="M42.1411133,13.1918945 L42.1411133,18.6933594 L41,18.6933594 L41,5.18554688 L45.6015625,5.18554688 C47.0055409,5.18554688 48.1141724,5.54426725 48.9274902,6.26171875 C49.7408081,6.97917025 50.1474609,7.96565127 50.1474609,9.22119141 C50.1474609,10.4891014 49.7562702,11.4678514 48.973877,12.1574707 C48.1914837,12.84709 47.0581129,13.1918945 45.5737305,13.1918945 L42.1411133,13.1918945 Z M42.1411133,12.2270508 L45.6015625,12.2270508 C46.7086644,12.2270508 47.5528942,11.9641953 48.1342773,11.4384766 C48.7156605,10.9127578 49.0063477,10.179855 49.0063477,9.23974609 C49.0063477,8.30582215 48.7172067,7.56209587 48.138916,7.00854492 C47.5606254,6.45499398 46.7395887,6.17203782 45.6757812,6.15966797 L42.1411133,6.15966797 L42.1411133,12.2270508 Z M53.9004724,17.7285156 L60.5708826,17.7285156 L60.5708826,18.6933594 L52.7500818,18.6933594 L52.7500818,5.18554688 L53.9004724,5.18554688 L53.9004724,17.7285156 Z M70.2706715,12.2177734 L63.9528004,12.2177734 L63.9528004,17.7285156 L71.2169605,17.7285156 L71.2169605,18.6933594 L62.8116871,18.6933594 L62.8116871,5.18554688 L71.1705738,5.18554688 L71.1705738,6.15966797 L63.9528004,6.15966797 L63.9528004,11.2529297 L70.2706715,11.2529297 L70.2706715,12.2177734 Z M80.9631361,14.9082031 L74.8308119,14.9082031 L73.4392103,18.6933594 L72.242433,18.6933594 L77.3542494,5.18554688 L78.4396986,5.18554688 L83.551515,18.6933594 L82.364015,18.6933594 L80.9631361,14.9082031 Z M75.1833509,13.934082 L80.6013197,13.934082 L77.8923353,6.57714844 L75.1833509,13.934082 Z M93.2327492,15.3720703 C93.2327492,14.6236942 92.9698937,14.0314963 92.4441749,13.595459 C91.9184562,13.1594216 90.9567145,12.7450378 89.558921,12.3522949 C88.1611276,11.9595521 87.14063,11.5312523 86.4973976,11.0673828 C85.5820284,10.4117806 85.1243507,9.55208865 85.1243507,8.48828125 C85.1243507,7.45539848 85.5495581,6.61580727 86.3999855,5.96948242 C87.2504129,5.32315758 88.3373975,5 89.6609718,5 C90.5577862,5 91.3602684,5.17317535 92.0684425,5.51953125 C92.7766166,5.86588715 93.3255206,6.3483042 93.715171,6.96679688 C94.1048214,7.58528955 94.2996437,8.27489854 94.2996437,9.03564453 L93.1492531,9.03564453 C93.1492531,8.11409044 92.8338265,7.37345657 92.202964,6.8137207 C91.5721015,6.25398483 90.7247792,5.97412109 89.6609718,5.97412109 C88.628089,5.97412109 87.8055061,6.20450616 87.1931984,6.6652832 C86.5808906,7.12606025 86.2747413,7.72753535 86.2747413,8.46972656 C86.2747413,9.15625343 86.5499665,9.71598091 87.1004249,10.1489258 C87.6508834,10.5818707 88.5322223,10.9637842 89.7444679,11.2946777 C90.9567135,11.6255713 91.8751614,11.9688296 92.499839,12.3244629 C93.1245166,12.6800962 93.594564,13.1053035 93.9099952,13.6000977 C94.2254265,14.0948918 94.3831398,14.6793586 94.3831398,15.3535156 C94.3831398,16.417323 93.9579324,17.2708301 93.107505,17.9140625 C92.2570776,18.5572949 91.1360764,18.8789062 89.7444679,18.8789062 C88.7919892,18.8789062 87.9183814,18.7088233 87.1236183,18.3686523 C86.3288552,18.0284814 85.7258339,17.5522492 85.3145363,16.9399414 C84.9032386,16.3276337 84.6975929,15.625655 84.6975929,14.8339844 L85.8387062,14.8339844 C85.8387062,15.7864631 86.1943341,16.5379204 86.9056007,17.0883789 C87.6168673,17.6388374 88.5631469,17.9140625 89.7444679,17.9140625 C90.7959055,17.9140625 91.6401353,17.6821312 92.2771827,17.2182617 C92.9142302,16.7543922 93.2327492,16.1390012 93.2327492,15.3720703 Z M104.351972,12.2177734 L98.0341005,12.2177734 L98.0341005,17.7285156 L105.298261,17.7285156 L105.298261,18.6933594 L96.8929872,18.6933594 L96.8929872,5.18554688 L105.251874,5.18554688 L105.251874,6.15966797 L98.0341005,6.15966797 L98.0341005,11.2529297 L104.351972,11.2529297 L104.351972,12.2177734 Z M119.882897,12.2177734 L113.565026,12.2177734 L113.565026,17.7285156 L120.829186,17.7285156 L120.829186,18.6933594 L112.423913,18.6933594 L112.423913,5.18554688 L120.782799,5.18554688 L120.782799,6.15966797 L113.565026,6.15966797 L113.565026,11.2529297 L119.882897,11.2529297 L119.882897,12.2177734 Z M133.34001,18.6933594 L132.198897,18.6933594 L124.43376,7.13378906 L124.43376,18.6933594 L123.283369,18.6933594 L123.283369,5.18554688 L124.43376,5.18554688 L132.208174,16.7543945 L132.208174,5.18554688 L133.34001,5.18554688 L133.34001,18.6933594 Z M144.46851,15.3720703 C144.46851,14.6236942 144.205654,14.0314963 143.679936,13.595459 C143.154217,13.1594216 142.192475,12.7450378 140.794682,12.3522949 C139.396888,11.9595521 138.376391,11.5312523 137.733158,11.0673828 C136.817789,10.4117806 136.360111,9.55208865 136.360111,8.48828125 C136.360111,7.45539848 136.785319,6.61580727 137.635746,5.96948242 C138.486174,5.32315758 139.573158,5 140.896732,5 C141.793547,5 142.596029,5.17317535 143.304203,5.51953125 C144.012377,5.86588715 144.561281,6.3483042 144.950932,6.96679688 C145.340582,7.58528955 145.535404,8.27489854 145.535404,9.03564453 L144.385014,9.03564453 C144.385014,8.11409044 144.069587,7.37345657 143.438725,6.8137207 C142.807862,6.25398483 141.96054,5.97412109 140.896732,5.97412109 C139.86385,5.97412109 139.041267,6.20450616 138.428959,6.6652832 C137.816651,7.12606025 137.510502,7.72753535 137.510502,8.46972656 C137.510502,9.15625343 137.785727,9.71598091 138.336186,10.1489258 C138.886644,10.5818707 139.767983,10.9637842 140.980229,11.2946777 C142.192474,11.6255713 143.110922,11.9688296 143.7356,12.3244629 C144.360277,12.6800962 144.830325,13.1053035 145.145756,13.6000977 C145.461187,14.0948918 145.6189,14.6793586 145.6189,15.3535156 C145.6189,16.417323 145.193693,17.2708301 144.343266,17.9140625 C143.492838,18.5572949 142.371837,18.8789062 140.980229,18.8789062 C140.02775,18.8789062 139.154142,18.7088233 138.359379,18.3686523 C137.564616,18.0284814 136.961595,17.5522492 136.550297,16.9399414 C136.138999,16.3276337 135.933354,15.625655 135.933354,14.8339844 L137.074467,14.8339844 C137.074467,15.7864631 137.430095,16.5379204 138.141361,17.0883789 C138.852628,17.6388374 139.798908,17.9140625 140.980229,17.9140625 C142.031666,17.9140625 142.875896,17.6821312 143.512943,17.2182617 C144.149991,16.7543922 144.46851,16.1390012 144.46851,15.3720703 Z M157.433924,5.18554688 L157.433924,14.4072266 C157.427739,15.3164108 157.226732,16.1080695 156.830896,16.7822266 C156.435061,17.4563836 155.87688,17.9743634 155.156336,18.3361816 C154.435792,18.6979999 153.60857,18.8789062 152.674646,18.8789062 C151.252113,18.8789062 150.112558,18.4908079 149.255945,17.7145996 C148.399333,16.9383913 147.955571,15.8637764 147.924646,14.4907227 L147.924646,5.18554688 L149.056482,5.18554688 L149.056482,14.3237305 C149.056482,15.461757 149.381186,16.344642 150.030603,16.9724121 C150.680021,17.6001822 151.56136,17.9140625 152.674646,17.9140625 C153.787933,17.9140625 154.667726,17.598636 155.314051,16.9677734 C155.960375,16.3369109 156.283533,15.4586645 156.283533,14.3330078 L156.283533,5.18554688 L157.433924,5.18554688 Z M165.714279,13.0712891 L161.789963,13.0712891 L161.789963,18.6933594 L160.639572,18.6933594 L160.639572,5.18554688 L165.027755,5.18554688 C166.468843,5.18554688 167.594483,5.53499 168.404709,6.23388672 C169.214934,6.93278344 169.620041,7.90998721 169.620041,9.16552734 C169.620041,10.0314171 169.366462,10.7952441 168.859298,11.4570312 C168.352134,12.1188184 167.671803,12.5764961 166.818283,12.8300781 L170.195236,18.5727539 L170.195236,18.6933594 L168.979904,18.6933594 L165.714279,13.0712891 Z M161.789963,12.097168 L165.287521,12.097168 C166.246185,12.097168 167.016197,11.8250353 167.59758,11.2807617 C168.178963,10.7364882 168.46965,10.0314171 168.46965,9.16552734 C168.46965,8.21304862 168.166593,7.47396096 167.56047,6.94824219 C166.954348,6.42252341 166.103933,6.15966797 165.009201,6.15966797 L161.789963,6.15966797 L161.789963,12.097168 Z M180.238287,12.2177734 L173.920415,12.2177734 L173.920415,17.7285156 L181.184576,17.7285156 L181.184576,18.6933594 L172.779302,18.6933594 L172.779302,5.18554688 L181.138189,5.18554688 L181.138189,6.15966797 L173.920415,6.15966797 L173.920415,11.2529297 L180.238287,11.2529297 L180.238287,12.2177734 Z M192.271653,12.5517578 L196.400071,5.18554688 L197.717454,5.18554688 L192.837571,13.609375 L192.837571,18.6933594 L191.696458,18.6933594 L191.696458,13.609375 L186.825853,5.18554688 L188.180345,5.18554688 L192.271653,12.5517578 Z M209.448981,12.6723633 C209.448981,13.9155336 209.234058,15.0071568 208.804206,15.9472656 C208.374353,16.8873745 207.760509,17.6110001 206.962653,18.1181641 C206.164798,18.6253281 205.243257,18.8789062 204.198005,18.8789062 C202.620848,18.8789062 201.346773,18.3145401 200.375739,17.185791 C199.404706,16.0570419 198.919196,14.5340265 198.919196,12.6166992 L198.919196,11.2250977 C198.919196,9.99429723 199.137211,8.90422024 199.573249,7.95483398 C200.009286,7.00544773 200.626223,6.27563732 201.424079,5.76538086 C202.221934,5.2551244 203.140382,5 204.17945,5 C205.218518,5 206.135419,5.25048578 206.930182,5.75146484 C207.724945,6.25244391 208.33879,6.9606074 208.771735,7.87597656 C209.20468,8.79134572 209.430426,9.85204475 209.448981,11.0581055 L209.448981,12.6723633 Z M208.307868,11.206543 C208.307868,9.57990723 207.93987,8.30583143 207.203864,7.38427734 C206.467858,6.46272326 205.45973,6.00195312 204.17945,6.00195312 C202.92391,6.00195312 201.923513,6.46426947 201.178229,7.38891602 C200.432946,8.31356257 200.060309,9.60464666 200.060309,11.262207 L200.060309,12.6723633 C200.060309,14.2742593 200.431399,15.5436965 201.173591,16.4807129 C201.915782,17.4177293 202.92391,17.8862305 204.198005,17.8862305 C205.490654,17.8862305 206.498782,17.4239141 207.222419,16.4992676 C207.946055,15.574621 208.307868,14.2866294 208.307868,12.6352539 L208.307868,11.206543 Z M221.681485,5.18554688 L221.681485,14.4072266 C221.6753,15.3164108 221.474293,16.1080695 221.078458,16.7822266 C220.682622,17.4563836 220.124441,17.9743634 219.403897,18.3361816 C218.683353,18.6979999 217.856131,18.8789062 216.922208,18.8789062 C215.499674,18.8789062 214.360119,18.4908079 213.503506,17.7145996 C212.646894,16.9383913 212.203132,15.8637764 212.172208,14.4907227 L212.172208,5.18554688 L213.304043,5.18554688 L213.304043,14.3237305 C213.304043,15.461757 213.628747,16.344642 214.278165,16.9724121 C214.927582,17.6001822 215.808921,17.9140625 216.922208,17.9140625 C218.035494,17.9140625 218.915287,17.598636 219.561612,16.9677734 C220.207937,16.3369109 220.531094,15.4586645 220.531094,14.3330078 L220.531094,5.18554688 L221.681485,5.18554688 Z M229.96184,13.0712891 L226.037524,13.0712891 L226.037524,18.6933594 L224.887133,18.6933594 L224.887133,5.18554688 L229.275317,5.18554688 C230.716405,5.18554688 231.842044,5.53499 232.65227,6.23388672 C233.462495,6.93278344 233.867602,7.90998721 233.867602,9.16552734 C233.867602,10.0314171 233.614024,10.7952441 233.10686,11.4570312 C232.599696,12.1188184 231.919364,12.5764961 231.065844,12.8300781 L234.442797,18.5727539 L234.442797,18.6933594 L233.227465,18.6933594 L229.96184,13.0712891 Z M226.037524,12.097168 L229.535082,12.097168 C230.493746,12.097168 231.263758,11.8250353 231.845141,11.2807617 C232.426524,10.7364882 232.717211,10.0314171 232.717211,9.16552734 C232.717211,8.21304862 232.414154,7.47396096 231.808032,6.94824219 C231.201909,6.42252341 230.351494,6.15966797 229.256762,6.15966797 L226.037524,6.15966797 L226.037524,12.097168 Z M245.771086,17.0234375 L245.845305,17.3110352 L245.928801,17.0234375 L250.177824,5.18554688 L251.430266,5.18554688 L246.401945,18.6933594 L245.307219,18.6933594 L240.278898,5.18554688 L241.522062,5.18554688 L245.771086,17.0234375 Z M263.328785,12.6723633 C263.328785,13.9155336 263.113862,15.0071568 262.684009,15.9472656 C262.254157,16.8873745 261.640312,17.6110001 260.842457,18.1181641 C260.044601,18.6253281 259.123061,18.8789062 258.077808,18.8789062 C256.500652,18.8789062 255.226576,18.3145401 254.255543,17.185791 C253.284509,16.0570419 252.799,14.5340265 252.799,12.6166992 L252.799,11.2250977 C252.799,9.99429723 253.017015,8.90422024 253.453052,7.95483398 C253.88909,7.00544773 254.506027,6.27563732 255.303882,5.76538086 C256.101738,5.2551244 257.020186,5 258.059254,5 C259.098321,5 260.015223,5.25048578 260.809986,5.75146484 C261.604749,6.25244391 262.218594,6.9606074 262.651539,7.87597656 C263.084484,8.79134572 263.31023,9.85204475 263.328785,11.0581055 L263.328785,12.6723633 Z M262.187672,11.206543 C262.187672,9.57990723 261.819674,8.30583143 261.083668,7.38427734 C260.347661,6.46272326 259.339533,6.00195312 258.059254,6.00195312 C256.803713,6.00195312 255.803317,6.46426947 255.058033,7.38891602 C254.312749,8.31356257 253.940113,9.60464666 253.940113,11.262207 L253.940113,12.6723633 C253.940113,14.2742593 254.311203,15.5436965 255.053394,16.4807129 C255.795585,17.4177293 256.803713,17.8862305 258.077808,17.8862305 C259.370458,17.8862305 260.378586,17.4239141 261.102222,16.4992676 C261.825859,15.574621 262.187672,14.2866294 262.187672,12.6352539 L262.187672,11.206543 Z M267.406503,17.7285156 L274.076914,17.7285156 L274.076914,18.6933594 L266.256113,18.6933594 L266.256113,5.18554688 L267.406503,5.18554688 L267.406503,17.7285156 Z M285.121917,5.18554688 L285.121917,14.4072266 C285.115732,15.3164108 284.914725,16.1080695 284.51889,16.7822266 C284.123055,17.4563836 283.564873,17.9743634 282.844329,18.3361816 C282.123785,18.6979999 281.296564,18.8789062 280.36264,18.8789062 C278.940107,18.8789062 277.800551,18.4908079 276.943939,17.7145996 C276.087326,16.9383913 275.643565,15.8637764 275.61264,14.4907227 L275.61264,5.18554688 L276.744476,5.18554688 L276.744476,14.3237305 C276.744476,15.461757 277.06918,16.344642 277.718597,16.9724121 C278.368014,17.6001822 279.249353,17.9140625 280.36264,17.9140625 C281.475927,17.9140625 282.355719,17.598636 283.002044,16.9677734 C283.648369,16.3369109 283.971527,15.4586645 283.971527,14.3330078 L283.971527,5.18554688 L285.121917,5.18554688 Z M289.867605,5.18554688 L294.849538,17.1069336 L299.850026,5.18554688 L301.371511,5.18554688 L301.371511,18.6933594 L300.230397,18.6933594 L300.230397,12.8115234 L300.323171,6.78125 L295.294851,18.6933594 L294.413503,18.6933594 L289.403737,6.82763672 L289.496511,12.7744141 L289.496511,18.6933594 L288.355397,18.6933594 L288.355397,5.18554688 L289.867605,5.18554688 Z M312.305186,12.2177734 L305.987315,12.2177734 L305.987315,17.7285156 L313.251475,17.7285156 L313.251475,18.6933594 L304.846202,18.6933594 L304.846202,5.18554688 L313.205089,5.18554688 L313.205089,6.15966797 L305.987315,6.15966797 L305.987315,11.2529297 L312.305186,11.2529297 L312.305186,12.2177734 Z M321.768729,18.6933594 L320.627616,18.6933594 L320.627616,5.18554688 L321.768729,5.18554688 L321.768729,18.6933594 Z M333.129162,15.3720703 C333.129162,14.6236942 332.866307,14.0314963 332.340588,13.595459 C331.814869,13.1594216 330.853128,12.7450378 329.455334,12.3522949 C328.057541,11.9595521 327.037043,11.5312523 326.393811,11.0673828 C325.478442,10.4117806 325.020764,9.55208865 325.020764,8.48828125 C325.020764,7.45539848 325.445971,6.61580727 326.296399,5.96948242 C327.146826,5.32315758 328.233811,5 329.557385,5 C330.454199,5 331.256682,5.17317535 331.964856,5.51953125 C332.67303,5.86588715 333.221934,6.3483042 333.611584,6.96679688 C334.001235,7.58528955 334.196057,8.27489854 334.196057,9.03564453 L333.045666,9.03564453 C333.045666,8.11409044 332.73024,7.37345657 332.099377,6.8137207 C331.468515,6.25398483 330.621192,5.97412109 329.557385,5.97412109 C328.524502,5.97412109 327.701919,6.20450616 327.089611,6.6652832 C326.477304,7.12606025 326.171154,7.72753535 326.171154,8.46972656 C326.171154,9.15625343 326.44638,9.71598091 326.996838,10.1489258 C327.547297,10.5818707 328.428635,10.9637842 329.640881,11.2946777 C330.853127,11.6255713 331.771575,11.9688296 332.396252,12.3244629 C333.02093,12.6800962 333.490977,13.1053035 333.806408,13.6000977 C334.12184,14.0948918 334.279553,14.6793586 334.279553,15.3535156 C334.279553,16.417323 333.854346,17.2708301 333.003918,17.9140625 C332.153491,18.5572949 331.03249,18.8789062 329.640881,18.8789062 C328.688402,18.8789062 327.814794,18.7088233 327.020031,18.3686523 C326.225268,18.0284814 325.622247,17.5522492 325.210949,16.9399414 C324.799652,16.3276337 324.594006,15.625655 324.594006,14.8339844 L325.735119,14.8339844 C325.735119,15.7864631 326.090747,16.5379204 326.802014,17.0883789 C327.51328,17.6388374 328.45956,17.9140625 329.640881,17.9140625 C330.692319,17.9140625 331.536548,17.6821312 332.173596,17.2182617 C332.810643,16.7543922 333.129162,16.1390012 333.129162,15.3720703 Z M350.255791,6.15966797 L345.626396,6.15966797 L345.626396,18.6933594 L344.485283,18.6933594 L344.485283,6.15966797 L339.865166,6.15966797 L339.865166,5.18554688 L350.255791,5.18554688 L350.255791,6.15966797 Z M361.792494,5.18554688 L361.792494,14.4072266 C361.786309,15.3164108 361.585302,16.1080695 361.189466,16.7822266 C360.793631,17.4563836 360.23545,17.9743634 359.514906,18.3361816 C358.794362,18.6979999 357.96714,18.8789062 357.033216,18.8789062 C355.610683,18.8789062 354.471128,18.4908079 353.614515,17.7145996 C352.757903,16.9383913 352.314141,15.8637764 352.283216,14.4907227 L352.283216,5.18554688 L353.415052,5.18554688 L353.415052,14.3237305 C353.415052,15.461757 353.739756,16.344642 354.389173,16.9724121 C355.038591,17.6001822 355.91993,17.9140625 357.033216,17.9140625 C358.146503,17.9140625 359.026296,17.598636 359.672621,16.9677734 C360.318945,16.3369109 360.642103,15.4586645 360.642103,14.3330078 L360.642103,5.18554688 L361.792494,5.18554688 Z M370.072849,13.0712891 L366.148533,13.0712891 L366.148533,18.6933594 L364.998142,18.6933594 L364.998142,5.18554688 L369.386325,5.18554688 C370.827413,5.18554688 371.953053,5.53499 372.763279,6.23388672 C373.573504,6.93278344 373.978611,7.90998721 373.978611,9.16552734 C373.978611,10.0314171 373.725032,10.7952441 373.217868,11.4570312 C372.710704,12.1188184 372.030373,12.5764961 371.176853,12.8300781 L374.553806,18.5727539 L374.553806,18.6933594 L373.338474,18.6933594 L370.072849,13.0712891 Z M366.148533,12.097168 L369.646091,12.097168 C370.604755,12.097168 371.374767,11.8250353 371.95615,11.2807617 C372.537533,10.7364882 372.82822,10.0314171 372.82822,9.16552734 C372.82822,8.21304862 372.525163,7.47396096 371.91904,6.94824219 C371.312918,6.42252341 370.462503,6.15966797 369.367771,6.15966797 L366.148533,6.15966797 L366.148533,12.097168 Z M387.194513,18.6933594 L386.053399,18.6933594 L378.288263,7.13378906 L378.288263,18.6933594 L377.137872,18.6933594 L377.137872,5.18554688 L378.288263,5.18554688 L386.062677,16.7543945 L386.062677,5.18554688 L387.194513,5.18554688 L387.194513,18.6933594 Z M398.137466,12.2177734 L391.819595,12.2177734 L391.819595,17.7285156 L399.083755,17.7285156 L399.083755,18.6933594 L390.678481,18.6933594 L390.678481,5.18554688 L399.037368,5.18554688 L399.037368,6.15966797 L391.819595,6.15966797 L391.819595,11.2529297 L398.137466,11.2529297 L398.137466,12.2177734 Z M401.537938,18.6933594 L401.537938,5.18554688 L405.313817,5.18554688 C406.420919,5.18554688 407.413585,5.43757886 408.291844,5.94165039 C409.170104,6.44572192 409.855074,7.16780129 410.346776,8.10791016 C410.838478,9.04801902 411.084325,10.1179953 411.084325,11.3178711 L411.084325,12.5610352 C411.084325,13.7670959 410.840024,14.8370722 410.351415,15.7709961 C409.862805,16.70492 409.174743,17.4254532 408.287206,17.9326172 C407.399669,18.4397812 406.380717,18.6933594 405.230321,18.6933594 L401.537938,18.6933594 Z M402.679051,6.15966797 L402.679051,17.7285156 L405.239598,17.7285156 C406.662131,17.7285156 407.803233,17.256922 408.662938,16.3137207 C409.522643,15.3705194 409.952489,14.0948974 409.952489,12.4868164 L409.952489,11.2993164 C409.952489,9.74689979 409.528828,8.50374816 408.681493,7.56982422 C407.834158,6.63590028 406.717795,6.1658529 405.332372,6.15966797 L402.679051,6.15966797 Z M428.684098,12.6723633 C428.684098,13.9155336 428.469175,15.0071568 428.039322,15.9472656 C427.60947,16.8873745 426.995625,17.6110001 426.19777,18.1181641 C425.399914,18.6253281 424.478374,18.8789062 423.433121,18.8789062 C421.855965,18.8789062 420.581889,18.3145401 419.610856,17.185791 C418.639822,16.0570419 418.154313,14.5340265 418.154313,12.6166992 L418.154313,11.2250977 C418.154313,9.99429723 418.372328,8.90422024 418.808365,7.95483398 C419.244403,7.00544773 419.86134,6.27563732 420.659196,5.76538086 C421.457051,5.2551244 422.375499,5 423.414567,5 C424.453634,5 425.370536,5.25048578 426.165299,5.75146484 C426.960062,6.25244391 427.573907,6.9606074 428.006852,7.87597656 C428.439797,8.79134572 428.665543,9.85204475 428.684098,11.0581055 L428.684098,12.6723633 Z M427.542985,11.206543 C427.542985,9.57990723 427.174987,8.30583143 426.438981,7.38427734 C425.702974,6.46272326 424.694846,6.00195312 423.414567,6.00195312 C422.159026,6.00195312 421.15863,6.46426947 420.413346,7.38891602 C419.668062,8.31356257 419.295426,9.60464666 419.295426,11.262207 L419.295426,12.6723633 C419.295426,14.2742593 419.666516,15.5436965 420.408707,16.4807129 C421.150898,17.4177293 422.159026,17.8862305 423.433121,17.8862305 C424.725771,17.8862305 425.733899,17.4239141 426.457535,16.4992676 C427.181172,15.574621 427.542985,14.2866294 427.542985,12.6352539 L427.542985,11.206543 Z M441.668066,18.6933594 L440.526953,18.6933594 L432.761816,7.13378906 L432.761816,18.6933594 L431.611426,18.6933594 L431.611426,5.18554688 L432.761816,5.18554688 L440.53623,16.7543945 L440.53623,5.18554688 L441.668066,5.18554688 L441.668066,18.6933594 Z" id="PLEASEENSUREYOURVOLUMEISTURNEDON"></path>
                <g id="149139">
                    <path d="M14.202,1.19228099 C13.7145,0.928298601 13.1365,0.936906722 12.657,1.21332306 C12.634,1.22623525 12.612,1.24153857 12.592,1.25779836 L5.817,6.73973698 L0.5,6.73973698 C0.2235,6.73973698 0,6.95350532 0,7.21796594 L0,16.3043163 C0,16.4315252 0.0525,16.5529953 0.1465,16.6424241 C0.2405,16.731853 0.367,16.7825452 0.5,16.7825452 L5.805,16.7801541 L12.5765,22.7293224 C12.6015,22.7513209 12.6285,22.7704501 12.657,22.7867099 C12.903,22.9287439 13.1755,23 13.448,23 C13.7065,22.9995218 13.9645,22.9359173 14.202,22.807752 C14.7015,22.5380308 15,22.045455 15,21.4897529 L15,2.51028002 C15,1.95505619 14.7015,1.46248035 14.202,1.19228099 Z M14,21.4897529 C14,21.6958696 13.8915,21.8771184 13.7105,21.9751553 C13.633,22.0167612 13.4365,22.0971037 13.2105,21.9875893 L6.5,16.0915044 L6.5,13.9126932 C6.5,13.6482326 6.2765,13.4344643 6,13.4344643 C5.7235,13.4344643 5.5,13.6482326 5.5,13.9126932 L5.5,15.8236962 L1,15.8256091 L1,7.69571668 L5.5,7.69571668 L5.5,9.60863254 C5.5,9.87309315 5.7235,10.0868615 6,10.0868615 C6.2765,10.0868615 6.5,9.87309315 6.5,9.60863254 L6.5,7.43938595 L13.2025,2.01626949 C13.433,1.90053809 13.633,1.98279347 13.7105,2.02487762 C13.8915,2.12291455 14,2.30416333 14,2.51028002 L14,21.4897529 Z" id="Shape"></path>
                    <path d="M25,11.9995344 C25,7.93906061 22.4426651,4.33293957 18.6360076,3.02582407 C18.3848923,2.93972081 18.111167,3.07592935 18.0255377,3.33034744 C17.9403894,3.58427907 18.0750872,3.86107428 18.3266836,3.94766399 C21.7427173,5.1205168 24.0378725,8.35644249 24.0378725,12.0000209 C24.0378725,15.640194 21.7470469,18.8766062 18.337748,20.0528642 C18.0866328,20.1394539 17.9519349,20.4157627 18.0380453,20.6706672 C18.1063564,20.8725477 18.2930091,21 18.4931316,21 C18.5446054,21 18.5970414,20.9917302 18.6485152,20.9737312 C22.4479568,19.662724 25,16.056603 25,11.9995344 Z" id="Path"></path>
                    <path d="M21.95481,0.0381436821 C21.7246076,-0.0651897652 21.458606,0.0483314868 21.3602715,0.295264467 C21.2628433,0.542197446 21.3702409,0.826970843 21.6008964,0.931759691 C25.5451515,2.72335791 28.0936914,6.8450526 28.0936914,11.4310201 C28.0936914,16.1741709 25.4227999,20.3477749 21.2895794,22.0622368 C21.056205,22.1592635 20.9401975,22.4401559 21.0308283,22.6899997 C21.1001609,22.8821125 21.2719064,23 21.4536213,23 C21.5079998,23 21.5632846,22.9898122 21.61721,22.9674961 C26.1020782,21.1060386 29,16.577802 29,11.4310201 C29,6.45452009 26.2343992,1.98255897 21.95481,0.0381436821 Z" id="Path"></path>
                    <path d="M21,11.9999473 C21,9.24382735 18.818525,6.78399495 15.695136,6.0178933 C15.4067394,5.94820574 15.1052834,6.08804236 15.0214852,6.3335641 C14.9382311,6.57816282 15.1041951,6.83429921 15.39368,6.90490979 C18.0540021,7.5570192 19.9122553,9.65226106 19.9122553,11.9999473 C19.9122553,14.3476335 18.0540021,16.4428753 15.39368,17.0949847 C15.1047393,17.1655953 14.9382311,17.4217317 15.0214852,17.6663304 C15.0905915,17.8684705 15.3077052,18 15.544408,18 C15.5944693,18 15.6450747,17.9940004 15.695136,17.9820012 C18.8190691,17.2154381 21,14.7556057 21,11.9999473 Z" id="Path"></path>
                </g>
            </g>
        </g>
    </g>
</svg>